# xmcd
#
# Track frame offsets: 
#        150
#        13537
#        26507
#        40322
#        53750
#        65560
#        79785
#        93517
#        105602
#        118047
#        130900
#        143812
#        157262
#        172407
#        187335
#        201170
#
# Disc length: 2848 seconds
#
# Revision: 0
# Processed by: cddbd v1.4PL0 Copyright (c) Steve Scherf et al.
# Submitted via: ExactAudioCopy v0.90b2
#
DISCID=eb0b1e10
DTITLE=Eddie Lang and Joe Venuti - Stringing The Blues - Disc 1 of 2
DYEAR=1900
DGENRE=Blues
TTITLE0=Goin' Places
TTITLE1=Doin' Things
TTITLE2=Perfect
TTITLE3=Cheese And Crackers
TTITLE4=Stringing The Blues
TTITLE5=I'm Somebody's Somebody Now
TTITLE6=Two-Tone Stomp
TTITLE7=Beatin' The Dog
TTITLE8=The Wild dog
TTITLE9=Dinah
TTITLE10=In The Bottle Blues
TTITLE11=Wild Cat
TTITLE12=Guitar Blues
TTITLE13=Bull Frog Moan
TTITLE14=Jet Black Blues
TTITLE15=Penn Beach Blues
EXTD=
EXTT0=
EXTT1=
EXTT2=
EXTT3=
EXTT4=
EXTT5=
EXTT6=
EXTT7=
EXTT8=
EXTT9=
EXTT10=
EXTT11=
EXTT12=
EXTT13=
EXTT14=
EXTT15=
PLAYORDER=
